<svg fill="#000000" xmlns="http://www.w3.org/2000/svg"  viewBox="0 0 50 50" width="32px" height="32px"><path d="M 25.5625 47 C 13.121094 47 3 36.878906 3 24.4375 C 3 14.78125 9.304688 6.1875 18.683594 3.050781 C 19.097656 2.914063 19.550781 3.058594 19.804688 3.40625 C 20.0625 3.757813 20.066406 4.234375 19.8125 4.585938 C 18.085938 6.976563 16.03125 10.796875 16.03125 15.414063 C 16.03125 25.644531 24.355469 33.96875 34.589844 33.96875 C 39.207031 33.96875 43.027344 31.914063 45.414063 30.191406 C 45.769531 29.9375 46.242188 29.9375 46.59375 30.195313 C 46.945313 30.453125 47.085938 30.90625 46.949219 31.316406 C 43.8125 40.695313 35.21875 47 25.5625 47 Z"/></svg>